<?xml version="1.0" encoding="UTF-8"?>
<svg width="38px" height="38px" viewBox="0 0 38 38" version="1.1" xmlns="http://www.w3.org/2000/svg" xmlns:xlink="http://www.w3.org/1999/xlink">
    <!-- Generator: Sketch 50.2 (55047) - http://www.bohemiancoding.com/sketch -->
    <title>Icon / Rain</title>
    <desc>Created with Sketch.</desc>
    <defs></defs>
    <g id="Icon-/-Rain" stroke="none" stroke-width="1" fill="none" fill-rule="evenodd" stroke-linecap="round" stroke-linejoin="round">
        <path d="M30.8461538,12.5 C32.0910769,9.56 29.6922308,7.12455263 26.5384615,7.52631579 C25.4599231,4.65428947 22.7153846,2 19.5384615,2 C15.6313846,2 11.79,4.709 11.4615385,8.63157895 C8.01592308,8.96536842 5,12.1910789 5,15.8157895 C5,19.6648684 8.24961538,23 12,23 L27.5690769,23 C30.5683077,23 33,20.5529474 33,17.4736842 C33,15.5599211 32.279,13.5035789 30.8461538,12.5 Z" id="Stroke-1" stroke="#262F34" stroke-width="2"></path>
        <g id="Group" transform="translate(7.000000, 26.000000)" stroke="#262F34" stroke-width="2">
            <path d="M0,7 L6.92156564,0.0784343615" id="Stroke-3"></path>
            <path d="M6.92156564,7 L13.8431313,0.0784343615" id="Stroke-5"></path>
            <path d="M13.8431313,7 L20.7646969,0.0784343615" id="Stroke-7"></path>
        </g>
    </g>
</svg>