<?xml version="1.0" encoding="UTF-8"?>
<svg width="38px" height="38px" viewBox="0 0 38 38" version="1.1" xmlns="http://www.w3.org/2000/svg" xmlns:xlink="http://www.w3.org/1999/xlink">
    <!-- Generator: Sketch 50.2 (55047) - http://www.bohemiancoding.com/sketch -->
    <title>Icon / Snow</title>
    <desc>Created with Sketch.</desc>
    <defs></defs>
    <g id="Icon-/-Snow" stroke="none" stroke-width="1" fill="none" fill-rule="evenodd">
        <path d="M30.8461538,12.5 C32.0910769,9.56 29.6922308,7.12455263 26.5384615,7.52631579 C25.4599231,4.65428947 22.7153846,2 19.5384615,2 C15.6313846,2 11.79,4.709 11.4615385,8.63157895 C8.01592308,8.96536842 5,12.1910789 5,15.8157895 C5,19.6648684 8.24961538,23 12,23 L27.5690769,23 C30.5683077,23 33,20.5529474 33,17.4736842 C33,15.5599211 32.279,13.5035789 30.8461538,12.5 Z" id="Stroke-1" stroke="#262F34" stroke-width="2" stroke-linecap="round" stroke-linejoin="round"></path>
        <path d="M23.5,32 C22.6705,32 22,32.6705 22,33.5 C22,34.3295 22.6705,35 23.5,35 C24.3295,35 25,34.3295 25,33.5 C25,32.6705 24.3295,32 23.5,32" id="Fill-27" fill="#262F34"></path>
        <path d="M12.5,32 C11.6705,32 11,32.6705 11,33.5 C11,34.3295 11.6705,35 12.5,35 C13.3295,35 14,34.3295 14,33.5 C14,32.6705 13.3295,32 12.5,32" id="Fill-29" fill="#262F34"></path>
        <path d="M19.5,27 C18.6705,27 18,27.6705 18,28.5 C18,29.3295 18.6705,30 19.5,30 C20.3295,30 21,29.3295 21,28.5 C21,27.6705 20.3295,27 19.5,27" id="Fill-35" fill="#262F34"></path>
        <path d="M7.5,27 C6.6705,27 6,27.6705 6,28.5 C6,29.3295 6.6705,30 7.5,30 C8.3295,30 9,29.3295 9,28.5 C9,27.6705 8.3295,27 7.5,27" id="Fill-37" fill="#262F34"></path>
        <path d="M30.5,27 C29.6705,27 29,27.6705 29,28.5 C29,29.3295 29.6705,30 30.5,30 C31.3295,30 32,29.3295 32,28.5 C32,27.6705 31.3295,27 30.5,27" id="Fill-31" fill="#262F34"></path>
    </g>
</svg>