<?xml version="1.0" encoding="UTF-8"?>
<svg width="27px" height="37px" viewBox="0 0 27 37" version="1.1" xmlns="http://www.w3.org/2000/svg" xmlns:xlink="http://www.w3.org/1999/xlink">
    <!-- Generator: Sketch 50.2 (55047) - http://www.bohemiancoding.com/sketch -->
    <title>Icon / Naranja</title>
    <desc>Created with Sketch.</desc>
    <defs></defs>
    <g id="Page-1" stroke="none" stroke-width="1" fill="none" fill-rule="evenodd" stroke-linejoin="round">
        <g id="Dashboard" transform="translate(-815.000000, -924.000000)" stroke="#20C687" stroke-width="2">
            <g id="Icon-/-Naranja" transform="translate(815.000000, 925.000000)">
                <g id="Group-5" transform="translate(11.750000, 7.433333)" stroke-linecap="round">
                    <path d="M0.642857143,8.66666667 L0.642857143,0" id="Stroke-1"></path>
                </g>
                <g id="Group-11" transform="translate(0.464286, 0.166667)">
                    <polyline id="Stroke-6" stroke-linecap="round" points="9.60714286 16.0666667 11.9285714 16.9333333 14.25 16.0666667"></polyline>
                    <path d="M12,10 C15.5442857,10 18.4285714,7.3075 18.4285714,4 C14.8842857,4 12,6.692 12,10 Z" id="Stroke-7"></path>
                    <path d="M5.57142857,6 C9.11571429,6 12,3.3075 12,0 C8.45571429,0 5.57142857,2.692 5.57142857,6 Z" id="Stroke-7" transform="translate(8.785714, 3.000000) scale(-1, 1) translate(-8.785714, -3.000000) "></path>
                    <path d="M0.785528571,22.9355504 C0.785528571,29.1950162 6.22345253,34.2708842 12.930529,34.2708842 C19.6376055,34.2708842 25.0755295,29.1950162 25.0755295,22.9355504 C25.0755295,16.6746677 19.6376055,11.6002167 12.930529,11.6002167 C11.6871846,11.6002167 0.785528571,12.0989714 0.785528571,22.9355504 Z" id="Stroke-9" stroke-linecap="round"></path>
                </g>
            </g>
        </g>
    </g>
</svg>