<?xml version="1.0" encoding="UTF-8"?>
<svg width="34px" height="34px" viewBox="0 0 34 34" version="1.1" xmlns="http://www.w3.org/2000/svg" xmlns:xlink="http://www.w3.org/1999/xlink">
    <!-- Generator: Sketch 50.2 (55047) - http://www.bohemiancoding.com/sketch -->
    <title>Icon / Sun</title>
    <desc>Created with Sketch.</desc>
    <defs></defs>
    <g id="Page-1" stroke="none" stroke-width="1" fill="none" fill-rule="evenodd" stroke-linecap="round">
        <g id="Dashboard" transform="translate(-534.000000, -227.000000)" stroke="#262F34" stroke-width="2">
            <g id="Group-7">
                <g id="Data" transform="translate(28.000000, 208.000000)">
                    <g id="Weather" transform="translate(505.000000, 0.000000)">
                        <g id="Icon-/-Sun" transform="translate(2.000000, 20.000000)">
                            <g id="Group" transform="translate(15.052632, 0.842105)">
                                <path d="M0.947368421,1.89473684 L0.947368421,0" id="Stroke-5"></path>
                                <path d="M0.947368421,30.3157895 L0.947368421,28.4210526" id="Stroke-5"></path>
                            </g>
                            <g id="Group" transform="translate(16.000000, 16.000000) rotate(45.000000) translate(-16.000000, -16.000000) translate(15.052632, 0.842105)">
                                <path d="M0.947368421,1.89473684 L0.947368421,0" id="Stroke-5"></path>
                                <path d="M0.947368421,30.3157895 L0.947368421,28.4210526" id="Stroke-5"></path>
                            </g>
                            <g id="Group" transform="translate(16.000000, 16.000000) rotate(90.000000) translate(-16.000000, -16.000000) translate(15.052632, 0.842105)">
                                <path d="M0.947368421,1.89473684 L0.947368421,0" id="Stroke-5"></path>
                                <path d="M0.947368421,30.3157895 L0.947368421,28.4210526" id="Stroke-5"></path>
                            </g>
                            <g id="Group" transform="translate(16.000000, 16.000000) rotate(135.000000) translate(-16.000000, -16.000000) translate(15.052632, 0.842105)">
                                <path d="M0.947368421,1.89473684 L0.947368421,0" id="Stroke-5"></path>
                                <path d="M0.947368421,30.3157895 L0.947368421,28.4210526" id="Stroke-5"></path>
                            </g>
                            <circle id="Oval-3" stroke-linejoin="round" cx="16.4736842" cy="16.4736842" r="8.05263158"></circle>
                        </g>
                    </g>
                </g>
            </g>
        </g>
    </g>
</svg>