<?xml version="1.0" encoding="UTF-8"?>
<svg width="38px" height="38px" viewBox="0 0 38 38" version="1.1" xmlns="http://www.w3.org/2000/svg" xmlns:xlink="http://www.w3.org/1999/xlink">
    <!-- Generator: Sketch 50.2 (55047) - http://www.bohemiancoding.com/sketch -->
    <title>Icon / Cloudy</title>
    <desc>Created with Sketch.</desc>
    <defs></defs>
    <g id="Icon-/-Cloudy" stroke="none" stroke-width="1" fill="none" fill-rule="evenodd" stroke-linecap="round" stroke-linejoin="round">
        <g id="Group" transform="translate(4.000000, 4.000000)" stroke="#262F34" stroke-width="2">
            <path d="M25.0961538,20.15625 C26.3049519,17.4 23.9757151,15.1167681 20.9134615,15.4934211 C19.86622,12.8008964 17.2013221,10.3125 14.1165865,10.3125 C10.3228846,10.3125 6.59296875,12.8521875 6.27403846,16.5296053 C2.92840745,16.8425329 0,19.8666365 0,23.2648026 C0,26.8733141 3.15531851,30 6.796875,30 L21.9141707,30 C24.8263702,30 27.1875,27.7058882 27.1875,24.8190789 C27.1875,23.024926 26.4874219,21.0971053 25.0961538,20.15625 Z" id="Stroke-1"></path>
            <path d="M28.9543269,17.8125 C29.6110096,16.9396875 30,15.8541728 30,14.6691176 C30,12.8548621 29.2999219,10.9054412 27.9086538,9.95404412 C29.1174519,7.16691176 26.7882151,4.85809743 23.7259615,5.23897059 C22.67872,2.51627757 20.0138221,0 16.9290865,0 C13.1353846,0 9.40546875,2.56814338 9.08653846,6.28676471 C5.74090745,6.60319853 2.8125,9.66118566 2.8125,13.0974265" id="Stroke-3"></path>
        </g>
    </g>
</svg>