<?xml version="1.0" encoding="UTF-8"?>
<svg width="46px" height="26px" viewBox="0 0 46 26" version="1.1" xmlns="http://www.w3.org/2000/svg" xmlns:xlink="http://www.w3.org/1999/xlink">
    <!-- Generator: Sketch 50.2 (55047) - http://www.bohemiancoding.com/sketch -->
    <title>SM1</title>
    <desc>Created with Sketch.</desc>
    <defs></defs>
    <g id="Page-1" stroke="none" stroke-width="1" fill="none" fill-rule="evenodd">
        <g id="Dashboard" transform="translate(-1036.000000, -767.000000)">
            <g id="SM1" transform="translate(1036.000000, 768.000000)">
                <g id="Group" transform="translate(15.000000, 0.000000)">
                    <path d="M15.7775981,0 L14.022485,0 C13.8497484,0 13.7036703,0.129503571 13.6819082,0.301901786 L13.451774,2.15265536 C13.4087939,2.49745179 13.1169098,2.7559125 12.7711645,2.7559125 L1.02915311,2.7559125 C0.701361525,2.7559125 0.393971908,2.91219107 0.199745194,3.17720893 C0.00606253223,3.44222679 -0.0507909456,3.78401786 0.0468664637,4.09712143 L1.11892176,7.54208036 C1.25275865,7.97403214 1.72608426,8.2677375 2.17628763,8.19642857 L12.0048666,8.19642857 C12.3832551,8.2677375 12.5132836,8.63548393 12.5132836,9.01607143 C12.5132836,9.39665893 12.3832551,9.64583036 12.0048666,9.83571429 L2.40098128,9.83571429" id="Stroke-1" stroke="#4B912A" stroke-linecap="round"></path>
                    <path d="M13.0256235,4.11428571 L12.5256235,7.21472143" id="Stroke-3" stroke="#C80000" stroke-linecap="round"></path>
                    <path d="M12.6142293,12.4071429 C12.6142293,13.0109464 12.1270303,13.5 11.5261244,13.5 C10.9252185,13.5 10.4380196,13.0109464 10.4380196,12.4071429 C10.4380196,11.8038857 10.9252185,11.3142857 11.5261244,11.3142857 C12.1270303,11.3142857 12.6142293,11.8038857 12.6142293,12.4071429 Z" id="Stroke-5" stroke="#C80000"></path>
                    <path d="M4.78571457,12.4071429 C4.78571457,13.0109464 4.29851563,13.5 3.69760973,13.5 C3.09670384,13.5 2.60950489,13.0109464 2.60950489,12.4071429 C2.60950489,11.8038857 3.09670384,11.3142857 3.69760973,11.3142857 C4.29851563,11.3142857 4.78571457,11.8038857 4.78571457,12.4071429 Z" id="Stroke-7" stroke="#C80000"></path>
                </g>
                <text id="Supermarket" font-family="Roboto-BoldItalic, Roboto" font-size="8" font-style="italic" font-weight="bold" fill="#C80000">
                    <tspan x="0" y="23">Supermarket</tspan>
                </text>
            </g>
        </g>
    </g>
</svg>