<?xml version="1.0" encoding="UTF-8"?>
<svg width="38px" height="38px" viewBox="0 0 38 38" version="1.1" xmlns="http://www.w3.org/2000/svg" xmlns:xlink="http://www.w3.org/1999/xlink">
    <!-- Generator: Sketch 50.2 (55047) - http://www.bohemiancoding.com/sketch -->
    <title>Icon / Sun</title>
    <desc>Created with Sketch.</desc>
    <defs></defs>
    <g id="Icon-/-Sun" stroke="none" stroke-width="1" fill="none" fill-rule="evenodd" stroke-linecap="round">
        <g id="Group" transform="translate(18.000000, 3.000000)" stroke="#262F34" stroke-width="2">
            <path d="M1,2 L1,0" id="Stroke-5"></path>
            <path d="M1,32 L1,30" id="Stroke-5"></path>
        </g>
        <g id="Group" transform="translate(19.000000, 19.000000) rotate(45.000000) translate(-19.000000, -19.000000) translate(18.000000, 3.000000)" stroke="#262F34" stroke-width="2">
            <path d="M1,2 L1,0" id="Stroke-5"></path>
            <path d="M1,32 L1,30" id="Stroke-5"></path>
        </g>
        <g id="Group" transform="translate(19.000000, 19.000000) rotate(90.000000) translate(-19.000000, -19.000000) translate(18.000000, 3.000000)" stroke="#262F34" stroke-width="2">
            <path d="M1,2 L1,0" id="Stroke-5"></path>
            <path d="M1,32 L1,30" id="Stroke-5"></path>
        </g>
        <g id="Group" transform="translate(19.000000, 19.000000) rotate(135.000000) translate(-19.000000, -19.000000) translate(18.000000, 3.000000)" stroke="#262F34" stroke-width="2">
            <path d="M1,2 L1,0" id="Stroke-5"></path>
            <path d="M1,32 L1,30" id="Stroke-5"></path>
        </g>
        <circle id="Oval-3" stroke="#262F34" stroke-width="2" stroke-linejoin="round" cx="19.5" cy="19.5" r="8.5"></circle>
    </g>
</svg>