<?xml version="1.0" encoding="UTF-8"?>
<svg width="38px" height="38px" viewBox="0 0 38 38" version="1.1" xmlns="http://www.w3.org/2000/svg" xmlns:xlink="http://www.w3.org/1999/xlink">
    <!-- Generator: Sketch 50.2 (55047) - http://www.bohemiancoding.com/sketch -->
    <title>Icon / Windy</title>
    <desc>Created with Sketch.</desc>
    <defs></defs>
    <g id="Icon-/-Windy" stroke="none" stroke-width="1" fill="none" fill-rule="evenodd" stroke-linecap="round">
        <g id="Group-3" transform="translate(3.000000, 3.000000)" stroke="#262F34" stroke-width="2">
            <g id="Group" transform="translate(13.000000, 13.000000) rotate(90.000000) translate(-13.000000, -13.000000) translate(12.000000, 0.000000)">
                <path d="M1,2 L1,0" id="Stroke-5"></path>
                <path d="M1,26 L1,24" id="Stroke-5"></path>
            </g>
            <g id="Group-Copy" transform="translate(12.000000, 0.000000)">
                <path d="M1,2 L1,0" id="Stroke-5"></path>
            </g>
            <g id="Group-Copy-2" transform="translate(13.899495, 12.899495) rotate(45.000000) translate(-13.899495, -12.899495) translate(12.899495, -0.100505)">
                <path d="M1,2 L1,0" id="Stroke-5"></path>
                <path d="M1,26 L1,24" id="Stroke-5"></path>
            </g>
            <g id="Group-Copy-3" transform="translate(4.414214, 4.414214) rotate(135.000000) translate(-4.414214, -4.414214) translate(3.414214, 3.414214)">
                <path d="M1,2 L1,0" id="Stroke-5"></path>
            </g>
            <circle id="Oval-3" stroke-linejoin="round" cx="13" cy="13" r="6"></circle>
            <g id="Group" transform="translate(0.000000, 19.000000)" stroke-linejoin="round">
                <g id="Group-2">
                    <path d="M9,7 C21.6337977,7 28.34301,7 29.1276369,7 C31.0606335,7 32.6276369,5.43299662 32.6276369,3.5 C32.6276369,1.56700338 31.0606335,0 29.1276369,0 C27.1946403,0 25.6276369,1.56700338 25.6276369,3.5" id="Oval-4-Copy"></path>
                    <path d="M0,10 C18.2829547,10 27.992167,10 29.1276369,10" id="Oval-4-Copy-2"></path>
                </g>
            </g>
        </g>
    </g>
</svg>